<svg width="413" height="133" viewBox="0 0 413 133" fill="none" xmlns="http://www.w3.org/2000/svg">
<path d="M337.312 113.372L336.425 112.825L335.412 113.07C300.937 121.417 255.513 125.5 206.5 125.5C149.656 125.5 98.2921 118.356 61.2225 106.867C42.6727 101.118 27.843 94.3234 17.7054 86.8951C7.51587 79.4287 2.5 71.6616 2.5 64C2.5 56.3384 7.51587 48.5713 17.7054 41.1049C27.843 33.6766 42.6727 26.8822 61.2225 21.1331C98.2921 9.64424 149.656 2.5 206.5 2.5C263.344 2.5 314.708 9.64424 351.777 21.1331C370.327 26.8822 385.157 33.6766 395.295 41.1049C405.484 48.5713 410.5 56.3384 410.5 64C410.5 77.3978 400.562 89.0601 373.548 100.188L370.555 101.421L372.503 104.004L372.504 104.005L372.504 104.005L372.504 104.005L372.508 104.011L372.531 104.042C372.553 104.071 372.586 104.116 372.631 104.178C372.72 104.3 372.854 104.486 373.024 104.728C373.364 105.213 373.848 105.922 374.41 106.805C375.539 108.576 376.966 111.015 378.188 113.718C379.419 116.438 380.39 119.314 380.697 121.981C381.004 124.644 380.626 126.87 379.445 128.577C379.14 129.017 378.55 129.443 377.287 129.632C375.997 129.825 374.256 129.72 372.106 129.291C367.818 128.434 362.545 126.42 357.321 124.038C352.129 121.67 347.124 119.003 343.406 116.92C341.55 115.881 340.022 114.991 338.959 114.361C338.428 114.047 338.013 113.798 337.733 113.628C337.672 113.591 337.617 113.558 337.569 113.529C337.506 113.491 337.455 113.46 337.415 113.435L337.336 113.387L337.317 113.375L337.313 113.372L337.312 113.372Z" fill="white" stroke="black" stroke-width="5"/>
<path d="M134.158 78.4C131.198 78.4 128.412 77.8667 125.798 76.8C125.478 76.6667 125.225 76.48 125.038 76.24C124.852 75.9733 124.758 75.6533 124.758 75.28C124.758 74.8267 124.905 74.44 125.198 74.12C125.518 73.7733 125.905 73.6 126.358 73.6C126.598 73.6 126.852 73.6533 127.118 73.76C129.038 74.5333 131.158 74.92 133.478 74.92C135.558 74.92 137.305 74.5867 138.718 73.92C140.158 73.2267 140.878 72.08 140.878 70.48C140.878 67.12 137.932 65.44 132.038 65.44H131.398C130.945 65.44 130.545 65.28 130.198 64.96C129.878 64.6133 129.718 64.2133 129.718 63.76C129.718 63.3067 129.878 62.92 130.198 62.6C130.545 62.2533 130.945 62.08 131.398 62.08H131.638C134.305 62.08 136.345 61.68 137.758 60.88C139.172 60.0533 139.878 58.84 139.878 57.24C139.878 55.96 139.345 54.9467 138.278 54.2C137.212 53.4533 135.638 53.08 133.558 53.08C131.318 53.08 129.252 53.52 127.358 54.4C127.092 54.5067 126.852 54.56 126.638 54.56C126.238 54.56 125.892 54.4267 125.598 54.16C125.305 53.8667 125.158 53.5067 125.158 53.08C125.158 52.4667 125.425 52.0133 125.958 51.72C128.518 50.36 131.158 49.68 133.878 49.68C136.945 49.68 139.318 50.3067 140.998 51.56C142.678 52.8133 143.518 54.5867 143.518 56.88C143.518 58.72 143.052 60.1733 142.118 61.24C141.212 62.28 140.065 63.0533 138.678 63.56C140.198 63.9067 141.545 64.64 142.718 65.76C143.918 66.8533 144.518 68.4933 144.518 70.68C144.518 73.1333 143.545 75.04 141.598 76.4C139.678 77.7333 137.198 78.4 134.158 78.4ZM160.076 78.4C156.556 78.4 153.862 77.1067 151.996 74.52C150.156 71.9333 149.236 68.44 149.236 64.04C149.236 59.64 150.156 56.1467 151.996 53.56C153.862 50.9733 156.556 49.68 160.076 49.68C163.569 49.68 166.249 50.9733 168.116 53.56C169.982 56.1467 170.916 59.64 170.916 64.04C170.916 68.44 169.982 71.9333 168.116 74.52C166.249 77.1067 163.569 78.4 160.076 78.4ZM160.076 75.04C162.396 75.04 164.169 74.0667 165.396 72.12C166.649 70.1733 167.276 67.48 167.276 64.04C167.276 60.6267 166.649 57.9467 165.396 56C164.169 54.0533 162.396 53.08 160.076 53.08C157.756 53.08 155.969 54.0533 154.716 56C153.489 57.9467 152.876 60.6267 152.876 64.04C152.876 67.48 153.489 70.1733 154.716 72.12C155.969 74.0667 157.756 75.04 160.076 75.04ZM191.383 78.4C190.21 78.4 189.117 78.16 188.103 77.68C187.117 77.2 186.33 76.5067 185.743 75.6C185.157 74.6667 184.863 73.6 184.863 72.4C184.863 70.4267 185.637 68.8533 187.183 67.68C188.757 66.5067 191.05 65.92 194.063 65.92H198.903V65.6C198.903 63.84 198.463 62.5733 197.583 61.8C196.73 61.0267 195.383 60.64 193.543 60.64C192.53 60.64 191.623 60.72 190.823 60.88C190.05 61.04 189.183 61.28 188.223 61.6C188.01 61.6533 187.837 61.68 187.703 61.68C187.303 61.68 186.957 61.5333 186.663 61.24C186.37 60.9467 186.223 60.5867 186.223 60.16C186.223 59.44 186.57 58.9333 187.263 58.64C189.53 57.68 191.837 57.2 194.183 57.2C196.023 57.2 197.57 57.5733 198.823 58.32C200.103 59.0667 201.037 60.04 201.623 61.24C202.237 62.4133 202.543 63.6933 202.543 65.08V76.4C202.543 76.9067 202.357 77.3333 201.983 77.68C201.637 78.0267 201.21 78.2 200.703 78.2C200.197 78.2 199.77 78.0267 199.423 77.68C199.077 77.3333 198.903 76.9067 198.903 76.4V75.36C196.93 77.3867 194.423 78.4 191.383 78.4ZM192.743 75.2C193.917 75.2 195.05 74.92 196.143 74.36C197.237 73.7733 198.157 73.0533 198.903 72.2V68.84H194.543C190.517 68.84 188.503 69.8933 188.503 72C188.503 72.96 188.823 73.7333 189.463 74.32C190.13 74.9067 191.223 75.2 192.743 75.2ZM210.444 78.2C209.938 78.2 209.511 78.0267 209.164 77.68C208.818 77.3333 208.644 76.9067 208.644 76.4V59.24C208.644 58.7333 208.818 58.3067 209.164 57.96C209.511 57.5867 209.938 57.4 210.444 57.4C210.951 57.4 211.378 57.5867 211.724 57.96C212.098 58.3067 212.284 58.7333 212.284 59.24V60.88C213.298 59.76 214.391 58.8667 215.564 58.2C216.738 57.5333 218.124 57.2 219.724 57.2C221.191 57.2 222.458 57.5467 223.524 58.24C224.618 58.9333 225.444 59.88 226.004 61.08C226.591 62.28 226.884 63.6 226.884 65.04V76.4C226.884 76.9067 226.698 77.3333 226.324 77.68C225.978 78.0267 225.551 78.2 225.044 78.2C224.538 78.2 224.111 78.0267 223.764 77.68C223.418 77.3333 223.244 76.9067 223.244 76.4V65.44C223.244 62.1867 221.778 60.56 218.844 60.56C217.511 60.56 216.311 60.9067 215.244 61.6C214.204 62.2933 213.218 63.2267 212.284 64.4V76.4C212.284 76.9067 212.098 77.3333 211.724 77.68C211.378 78.0267 210.951 78.2 210.444 78.2ZM239.619 78.4C236.953 78.4 234.526 77.8 232.339 76.6C231.886 76.28 231.659 75.84 231.659 75.28C231.659 74.8533 231.806 74.48 232.099 74.16C232.393 73.84 232.766 73.68 233.219 73.68C233.459 73.68 233.699 73.7333 233.939 73.84C234.793 74.2133 235.646 74.5067 236.499 74.72C237.353 74.9333 238.313 75.04 239.379 75.04C242.339 75.04 243.819 74.0933 243.819 72.2C243.819 71.5867 243.473 71.12 242.779 70.8C242.113 70.48 241.006 70.12 239.459 69.72C237.886 69.3467 236.579 68.96 235.539 68.56C234.526 68.16 233.646 67.56 232.899 66.76C232.179 65.9333 231.819 64.8533 231.819 63.52C231.819 61.6533 232.486 60.1333 233.819 58.96C235.179 57.7867 237.113 57.2 239.619 57.2C241.673 57.2 243.606 57.5333 245.419 58.2C245.793 58.3067 246.073 58.5067 246.259 58.8C246.473 59.0933 246.579 59.4 246.579 59.72C246.579 60.1467 246.419 60.52 246.099 60.84C245.806 61.16 245.433 61.32 244.979 61.32C244.846 61.32 244.673 61.2933 244.459 61.24C242.913 60.76 241.393 60.52 239.899 60.52C238.459 60.52 237.326 60.7867 236.499 61.32C235.699 61.8267 235.299 62.4933 235.299 63.32C235.299 64.12 235.673 64.7067 236.419 65.08C237.166 65.4533 238.326 65.8133 239.899 66.16C241.473 66.56 242.753 66.96 243.739 67.36C244.726 67.7333 245.566 68.3333 246.259 69.16C246.979 69.9867 247.339 71.0933 247.339 72.48C247.339 74.1867 246.659 75.6 245.299 76.72C243.966 77.84 242.073 78.4 239.619 78.4ZM268.309 70.56C267.802 70.56 267.375 70.4133 267.029 70.12C266.709 69.8 266.549 69.4267 266.549 69C266.549 67.8 266.762 66.7467 267.189 65.84C267.615 64.9333 268.109 64.1867 268.669 63.6C269.255 62.9867 270.029 62.2933 270.989 61.52C272.002 60.72 272.749 60.0267 273.229 59.44C273.709 58.8533 273.949 58.1867 273.949 57.44C273.949 54.5333 272.042 53.08 268.229 53.08C267.295 53.08 266.375 53.2 265.469 53.44C264.589 53.6533 263.802 53.9733 263.109 54.4C262.789 54.6133 262.455 54.72 262.109 54.72C261.682 54.72 261.309 54.56 260.989 54.24C260.669 53.92 260.509 53.5467 260.509 53.12C260.509 52.5067 260.842 52 261.509 51.6C262.602 50.9067 263.709 50.4133 264.829 50.12C265.949 49.8267 267.189 49.68 268.549 49.68C271.269 49.68 273.442 50.36 275.069 51.72C276.722 53.08 277.549 54.92 277.549 57.24C277.549 58.28 277.362 59.2 276.989 60C276.615 60.7733 276.162 61.44 275.629 62C275.095 62.5333 274.389 63.1467 273.509 63.84C272.362 64.7467 271.495 65.5733 270.909 66.32C270.349 67.04 270.069 67.9333 270.069 69C270.069 69.4267 269.895 69.8 269.549 70.12C269.202 70.4133 268.789 70.56 268.309 70.56ZM268.229 78.16C267.589 78.16 267.029 77.9333 266.549 77.48C266.095 77 265.869 76.4267 265.869 75.76C265.869 75.12 266.095 74.5733 266.549 74.12C267.029 73.64 267.589 73.4 268.229 73.4C268.895 73.4 269.455 73.64 269.909 74.12C270.389 74.5733 270.629 75.12 270.629 75.76C270.629 76.4267 270.389 77 269.909 77.48C269.455 77.9333 268.895 78.16 268.229 78.16ZM284.992 70.28C284.592 70.28 284.272 70.1733 284.032 69.96C283.792 69.7467 283.658 69.4667 283.632 69.12L282.912 55.92V51.96C282.912 51.3733 283.112 50.88 283.512 50.48C283.912 50.08 284.405 49.88 284.992 49.88C285.578 49.88 286.058 50.08 286.432 50.48C286.832 50.88 287.032 51.3733 287.032 51.96V55.92L286.312 69.12C286.285 69.4667 286.152 69.7467 285.912 69.96C285.698 70.1733 285.392 70.28 284.992 70.28ZM284.992 78.16C284.352 78.16 283.792 77.9333 283.312 77.48C282.858 77 282.632 76.4267 282.632 75.76C282.632 75.12 282.858 74.5733 283.312 74.12C283.792 73.64 284.352 73.4 284.992 73.4C285.658 73.4 286.218 73.64 286.672 74.12C287.152 74.5733 287.392 75.12 287.392 75.76C287.392 76.4267 287.152 77 286.672 77.48C286.218 77.9333 285.658 78.16 284.992 78.16Z" fill="black"/>
</svg>