<svg width="413" height="133" viewBox="0 0 413 133" fill="none" xmlns="http://www.w3.org/2000/svg">
<path d="M337.312 113.372L336.425 112.825L335.412 113.07C300.937 121.417 255.513 125.5 206.5 125.5C149.656 125.5 98.2921 118.356 61.2225 106.867C42.6727 101.118 27.843 94.3234 17.7054 86.8951C7.51587 79.4287 2.5 71.6616 2.5 64C2.5 56.3384 7.51587 48.5713 17.7054 41.1049C27.843 33.6766 42.6727 26.8822 61.2225 21.1331C98.2921 9.64424 149.656 2.5 206.5 2.5C263.344 2.5 314.708 9.64424 351.777 21.1331C370.327 26.8822 385.157 33.6766 395.295 41.1049C405.484 48.5713 410.5 56.3384 410.5 64C410.5 77.3978 400.562 89.0601 373.548 100.188L370.555 101.421L372.503 104.004L372.504 104.005L372.504 104.005L372.504 104.005L372.508 104.011L372.531 104.042C372.553 104.071 372.586 104.116 372.631 104.178C372.72 104.3 372.854 104.486 373.024 104.728C373.364 105.213 373.848 105.922 374.41 106.805C375.539 108.576 376.966 111.015 378.188 113.718C379.419 116.438 380.39 119.314 380.697 121.981C381.004 124.644 380.626 126.87 379.445 128.577C379.14 129.017 378.55 129.443 377.287 129.632C375.997 129.825 374.256 129.72 372.106 129.291C367.818 128.434 362.545 126.42 357.321 124.038C352.129 121.67 347.124 119.003 343.406 116.92C341.55 115.881 340.022 114.991 338.959 114.361C338.428 114.047 338.013 113.798 337.733 113.628C337.672 113.591 337.617 113.558 337.569 113.529C337.506 113.491 337.455 113.46 337.415 113.435L337.336 113.387L337.317 113.375L337.313 113.372L337.312 113.372Z" fill="white" stroke="black" stroke-width="5"/>
<path d="M139.059 61.2812H142.066C143.499 61.2812 144.56 60.9232 145.25 60.207C145.94 59.4909 146.285 58.5404 146.285 57.3555C146.285 56.2096 145.94 55.3177 145.25 54.6797C144.573 54.0417 143.635 53.7227 142.438 53.7227C141.357 53.7227 140.452 54.0221 139.723 54.6211C138.993 55.207 138.629 55.9753 138.629 56.9258H132.984C132.984 55.4414 133.382 54.1133 134.176 52.9414C134.983 51.7565 136.103 50.832 137.535 50.168C138.98 49.5039 140.569 49.1719 142.301 49.1719C145.309 49.1719 147.665 49.8945 149.371 51.3398C151.077 52.7721 151.93 54.7513 151.93 57.2773C151.93 58.5794 151.533 59.7773 150.738 60.8711C149.944 61.9648 148.902 62.8047 147.613 63.3906C149.215 63.9635 150.406 64.8229 151.188 65.9688C151.982 67.1146 152.379 68.4688 152.379 70.0312C152.379 72.5573 151.454 74.582 149.605 76.1055C147.77 77.6289 145.335 78.3906 142.301 78.3906C139.462 78.3906 137.138 77.6419 135.328 76.1445C133.531 74.6471 132.633 72.668 132.633 70.207H138.277C138.277 71.2747 138.674 72.1471 139.469 72.8242C140.276 73.5013 141.266 73.8398 142.438 73.8398C143.779 73.8398 144.827 73.4883 145.582 72.7852C146.35 72.069 146.734 71.125 146.734 69.9531C146.734 67.1146 145.172 65.6953 142.047 65.6953H139.059V61.2812ZM175.426 66.2422C175.426 70.1745 174.612 73.1823 172.984 75.2656C171.357 77.349 168.974 78.3906 165.836 78.3906C162.737 78.3906 160.367 77.3685 158.727 75.3242C157.086 73.2799 156.246 70.3503 156.207 66.5352V61.3008C156.207 57.3294 157.027 54.3151 158.668 52.2578C160.322 50.2005 162.698 49.1719 165.797 49.1719C168.896 49.1719 171.266 50.194 172.906 52.2383C174.547 54.2695 175.387 57.1927 175.426 61.0078V66.2422ZM169.781 60.5C169.781 58.1432 169.456 56.431 168.805 55.3633C168.167 54.2826 167.164 53.7422 165.797 53.7422C164.469 53.7422 163.486 54.2565 162.848 55.2852C162.223 56.3008 161.891 57.8958 161.852 60.0703V66.9844C161.852 69.3021 162.164 71.0273 162.789 72.1602C163.427 73.2799 164.443 73.8398 165.836 73.8398C167.216 73.8398 168.212 73.2995 168.824 72.2188C169.436 71.138 169.755 69.4844 169.781 67.2578V60.5ZM201.695 78C201.435 77.4922 201.246 76.8607 201.129 76.1055C199.762 77.6289 197.984 78.3906 195.797 78.3906C193.727 78.3906 192.008 77.7917 190.641 76.5938C189.286 75.3958 188.609 73.8854 188.609 72.0625C188.609 69.8229 189.436 68.1042 191.09 66.9062C192.757 65.7083 195.159 65.1029 198.297 65.0898H200.895V63.8789C200.895 62.9023 200.641 62.1211 200.133 61.5352C199.638 60.9492 198.85 60.6562 197.77 60.6562C196.819 60.6562 196.07 60.8841 195.523 61.3398C194.99 61.7956 194.723 62.4206 194.723 63.2148H189.078C189.078 61.9909 189.456 60.8581 190.211 59.8164C190.966 58.7747 192.034 57.9609 193.414 57.375C194.794 56.776 196.344 56.4766 198.062 56.4766C200.667 56.4766 202.73 57.1341 204.254 58.4492C205.79 59.7513 206.559 61.5872 206.559 63.957V73.1172C206.572 75.1224 206.852 76.6393 207.398 77.668V78H201.695ZM197.027 74.0742C197.861 74.0742 198.629 73.8919 199.332 73.5273C200.035 73.1497 200.556 72.6484 200.895 72.0234V68.3906H198.785C195.96 68.3906 194.456 69.3672 194.273 71.3203L194.254 71.6523C194.254 72.3555 194.501 72.9349 194.996 73.3906C195.491 73.8464 196.168 74.0742 197.027 74.0742ZM216.09 56.8672L216.266 59.3086C217.776 57.4206 219.801 56.4766 222.34 56.4766C224.579 56.4766 226.246 57.1341 227.34 58.4492C228.434 59.7643 228.993 61.7305 229.02 64.3477V78H223.375V64.4844C223.375 63.2865 223.115 62.4206 222.594 61.8867C222.073 61.3398 221.207 61.0664 219.996 61.0664C218.408 61.0664 217.216 61.7435 216.422 63.0977V78H210.777V56.8672H216.09ZM244.762 72.1602C244.762 71.4701 244.417 70.9297 243.727 70.5391C243.049 70.1354 241.956 69.7773 240.445 69.4648C235.419 68.4102 232.906 66.2747 232.906 63.0586C232.906 61.1836 233.681 59.6211 235.23 58.3711C236.793 57.1081 238.831 56.4766 241.344 56.4766C244.026 56.4766 246.168 57.1081 247.77 58.3711C249.384 59.6341 250.191 61.2747 250.191 63.293H244.547C244.547 62.4857 244.286 61.8216 243.766 61.3008C243.245 60.7669 242.431 60.5 241.324 60.5C240.374 60.5 239.638 60.7148 239.117 61.1445C238.596 61.5742 238.336 62.1211 238.336 62.7852C238.336 63.4102 238.629 63.918 239.215 64.3086C239.814 64.6862 240.816 65.0182 242.223 65.3047C243.629 65.5781 244.814 65.8906 245.777 66.2422C248.759 67.3359 250.25 69.2305 250.25 71.9258C250.25 73.8529 249.423 75.4154 247.77 76.6133C246.116 77.7982 243.98 78.3906 241.363 78.3906C239.592 78.3906 238.017 78.0781 236.637 77.4531C235.27 76.8151 234.195 75.9492 233.414 74.8555C232.633 73.7487 232.242 72.5573 232.242 71.2812H237.594C237.646 72.2839 238.017 73.0521 238.707 73.5859C239.397 74.1198 240.322 74.3867 241.48 74.3867C242.561 74.3867 243.375 74.1849 243.922 73.7812C244.482 73.3646 244.762 72.8242 244.762 72.1602ZM268.473 69.2695C268.473 67.4466 268.694 65.9948 269.137 64.9141C269.579 63.8333 270.387 62.7721 271.559 61.7305C272.743 60.6758 273.531 59.8229 273.922 59.1719C274.312 58.5078 274.508 57.8112 274.508 57.082C274.508 54.8815 273.492 53.7812 271.461 53.7812C270.497 53.7812 269.723 54.0807 269.137 54.6797C268.564 55.2656 268.264 56.0794 268.238 57.1211H262.574C262.6 54.6341 263.401 52.6875 264.977 51.2812C266.565 49.875 268.727 49.1719 271.461 49.1719C274.221 49.1719 276.363 49.8424 277.887 51.1836C279.41 52.5117 280.172 54.3932 280.172 56.8281C280.172 57.9349 279.924 58.9831 279.43 59.9727C278.935 60.9492 278.069 62.0365 276.832 63.2344L275.25 64.7383C274.26 65.6888 273.694 66.8021 273.551 68.0781L273.473 69.2695H268.473ZM267.906 75.2656C267.906 74.3932 268.199 73.6771 268.785 73.1172C269.384 72.5443 270.146 72.2578 271.07 72.2578C271.995 72.2578 272.75 72.5443 273.336 73.1172C273.935 73.6771 274.234 74.3932 274.234 75.2656C274.234 76.125 273.941 76.8346 273.355 77.3945C272.783 77.9544 272.021 78.2344 271.07 78.2344C270.12 78.2344 269.352 77.9544 268.766 77.3945C268.193 76.8346 267.906 76.125 267.906 75.2656Z" fill="black"/>
</svg>
