<svg width="423" height="138" viewBox="0 0 423 138" fill="none" xmlns="http://www.w3.org/2000/svg">
<path d="M403.24 107.204L403.164 107.131L403.083 107.065L397.219 102.267C391.068 97.2343 387.5 89.7057 387.5 81.7575V34C387.5 16.603 373.397 2.5 356 2.5H34C16.603 2.5 2.5 16.603 2.5 34V93C2.5 110.397 16.603 124.5 34 124.5H373.547C375.944 124.5 378.33 124.825 380.64 125.467L385.677 126.866L395.03 130.804L395.118 130.841L395.209 130.872L402.709 133.372L407.633 135.013C408.601 135.335 409.615 135.5 410.635 135.5H412C416.956 135.5 420.803 131.175 420.223 126.252C420.001 124.358 419.131 122.599 417.761 121.272L403.24 107.204Z" fill="white" stroke="black" stroke-width="5"/>
<path d="M139.059 62.2812H142.066C143.499 62.2812 144.56 61.9232 145.25 61.207C145.94 60.4909 146.285 59.5404 146.285 58.3555C146.285 57.2096 145.94 56.3177 145.25 55.6797C144.573 55.0417 143.635 54.7227 142.438 54.7227C141.357 54.7227 140.452 55.0221 139.723 55.6211C138.993 56.207 138.629 56.9753 138.629 57.9258H132.984C132.984 56.4414 133.382 55.1133 134.176 53.9414C134.983 52.7565 136.103 51.832 137.535 51.168C138.98 50.5039 140.569 50.1719 142.301 50.1719C145.309 50.1719 147.665 50.8945 149.371 52.3398C151.077 53.7721 151.93 55.7513 151.93 58.2773C151.93 59.5794 151.533 60.7773 150.738 61.8711C149.944 62.9648 148.902 63.8047 147.613 64.3906C149.215 64.9635 150.406 65.8229 151.188 66.9688C151.982 68.1146 152.379 69.4688 152.379 71.0312C152.379 73.5573 151.454 75.582 149.605 77.1055C147.77 78.6289 145.335 79.3906 142.301 79.3906C139.462 79.3906 137.138 78.6419 135.328 77.1445C133.531 75.6471 132.633 73.668 132.633 71.207H138.277C138.277 72.2747 138.674 73.1471 139.469 73.8242C140.276 74.5013 141.266 74.8398 142.438 74.8398C143.779 74.8398 144.827 74.4883 145.582 73.7852C146.35 73.069 146.734 72.125 146.734 70.9531C146.734 68.1146 145.172 66.6953 142.047 66.6953H139.059V62.2812ZM175.426 67.2422C175.426 71.1745 174.612 74.1823 172.984 76.2656C171.357 78.349 168.974 79.3906 165.836 79.3906C162.737 79.3906 160.367 78.3685 158.727 76.3242C157.086 74.2799 156.246 71.3503 156.207 67.5352V62.3008C156.207 58.3294 157.027 55.3151 158.668 53.2578C160.322 51.2005 162.698 50.1719 165.797 50.1719C168.896 50.1719 171.266 51.194 172.906 53.2383C174.547 55.2695 175.387 58.1927 175.426 62.0078V67.2422ZM169.781 61.5C169.781 59.1432 169.456 57.431 168.805 56.3633C168.167 55.2826 167.164 54.7422 165.797 54.7422C164.469 54.7422 163.486 55.2565 162.848 56.2852C162.223 57.3008 161.891 58.8958 161.852 61.0703V67.9844C161.852 70.3021 162.164 72.0273 162.789 73.1602C163.427 74.2799 164.443 74.8398 165.836 74.8398C167.216 74.8398 168.212 74.2995 168.824 73.2188C169.436 72.138 169.755 70.4844 169.781 68.2578V61.5ZM201.695 79C201.435 78.4922 201.246 77.8607 201.129 77.1055C199.762 78.6289 197.984 79.3906 195.797 79.3906C193.727 79.3906 192.008 78.7917 190.641 77.5938C189.286 76.3958 188.609 74.8854 188.609 73.0625C188.609 70.8229 189.436 69.1042 191.09 67.9062C192.757 66.7083 195.159 66.1029 198.297 66.0898H200.895V64.8789C200.895 63.9023 200.641 63.1211 200.133 62.5352C199.638 61.9492 198.85 61.6562 197.77 61.6562C196.819 61.6562 196.07 61.8841 195.523 62.3398C194.99 62.7956 194.723 63.4206 194.723 64.2148H189.078C189.078 62.9909 189.456 61.8581 190.211 60.8164C190.966 59.7747 192.034 58.9609 193.414 58.375C194.794 57.776 196.344 57.4766 198.062 57.4766C200.667 57.4766 202.73 58.1341 204.254 59.4492C205.79 60.7513 206.559 62.5872 206.559 64.957V74.1172C206.572 76.1224 206.852 77.6393 207.398 78.668V79H201.695ZM197.027 75.0742C197.861 75.0742 198.629 74.8919 199.332 74.5273C200.035 74.1497 200.556 73.6484 200.895 73.0234V69.3906H198.785C195.96 69.3906 194.456 70.3672 194.273 72.3203L194.254 72.6523C194.254 73.3555 194.501 73.9349 194.996 74.3906C195.491 74.8464 196.168 75.0742 197.027 75.0742ZM216.09 57.8672L216.266 60.3086C217.776 58.4206 219.801 57.4766 222.34 57.4766C224.579 57.4766 226.246 58.1341 227.34 59.4492C228.434 60.7643 228.993 62.7305 229.02 65.3477V79H223.375V65.4844C223.375 64.2865 223.115 63.4206 222.594 62.8867C222.073 62.3398 221.207 62.0664 219.996 62.0664C218.408 62.0664 217.216 62.7435 216.422 64.0977V79H210.777V57.8672H216.09ZM244.762 73.1602C244.762 72.4701 244.417 71.9297 243.727 71.5391C243.049 71.1354 241.956 70.7773 240.445 70.4648C235.419 69.4102 232.906 67.2747 232.906 64.0586C232.906 62.1836 233.681 60.6211 235.23 59.3711C236.793 58.1081 238.831 57.4766 241.344 57.4766C244.026 57.4766 246.168 58.1081 247.77 59.3711C249.384 60.6341 250.191 62.2747 250.191 64.293H244.547C244.547 63.4857 244.286 62.8216 243.766 62.3008C243.245 61.7669 242.431 61.5 241.324 61.5C240.374 61.5 239.638 61.7148 239.117 62.1445C238.596 62.5742 238.336 63.1211 238.336 63.7852C238.336 64.4102 238.629 64.918 239.215 65.3086C239.814 65.6862 240.816 66.0182 242.223 66.3047C243.629 66.5781 244.814 66.8906 245.777 67.2422C248.759 68.3359 250.25 70.2305 250.25 72.9258C250.25 74.8529 249.423 76.4154 247.77 77.6133C246.116 78.7982 243.98 79.3906 241.363 79.3906C239.592 79.3906 238.017 79.0781 236.637 78.4531C235.27 77.8151 234.195 76.9492 233.414 75.8555C232.633 74.7487 232.242 73.5573 232.242 72.2812H237.594C237.646 73.2839 238.017 74.0521 238.707 74.5859C239.397 75.1198 240.322 75.3867 241.48 75.3867C242.561 75.3867 243.375 75.1849 243.922 74.7812C244.482 74.3646 244.762 73.8242 244.762 73.1602ZM268.473 70.2695C268.473 68.4466 268.694 66.9948 269.137 65.9141C269.579 64.8333 270.387 63.7721 271.559 62.7305C272.743 61.6758 273.531 60.8229 273.922 60.1719C274.312 59.5078 274.508 58.8112 274.508 58.082C274.508 55.8815 273.492 54.7812 271.461 54.7812C270.497 54.7812 269.723 55.0807 269.137 55.6797C268.564 56.2656 268.264 57.0794 268.238 58.1211H262.574C262.6 55.6341 263.401 53.6875 264.977 52.2812C266.565 50.875 268.727 50.1719 271.461 50.1719C274.221 50.1719 276.363 50.8424 277.887 52.1836C279.41 53.5117 280.172 55.3932 280.172 57.8281C280.172 58.9349 279.924 59.9831 279.43 60.9727C278.935 61.9492 278.069 63.0365 276.832 64.2344L275.25 65.7383C274.26 66.6888 273.694 67.8021 273.551 69.0781L273.473 70.2695H268.473ZM267.906 76.2656C267.906 75.3932 268.199 74.6771 268.785 74.1172C269.384 73.5443 270.146 73.2578 271.07 73.2578C271.995 73.2578 272.75 73.5443 273.336 74.1172C273.935 74.6771 274.234 75.3932 274.234 76.2656C274.234 77.125 273.941 77.8346 273.355 78.3945C272.783 78.9544 272.021 79.2344 271.07 79.2344C270.12 79.2344 269.352 78.9544 268.766 78.3945C268.193 77.8346 267.906 77.125 267.906 76.2656Z" fill="black"/>
</svg>
