<svg width="494" height="171" viewBox="0 0 494 171" fill="none" xmlns="http://www.w3.org/2000/svg">
<path d="M491.5 70.3056C491.5 78.2313 486.879 86.1508 477.36 93.7507C467.854 101.341 453.762 108.352 435.62 114.418C399.36 126.543 347.499 134.707 285.428 136.501C283.238 136.564 282.332 138.473 282.018 139.306C281.625 140.347 281.397 141.664 281.227 142.973C281.068 144.203 280.938 145.62 280.803 147.092L280.764 147.521C280.612 149.168 280.447 150.905 280.218 152.67C279.757 156.229 279.056 159.72 277.803 162.556C276.559 165.371 274.889 167.288 272.603 168.167C270.828 168.849 268.9 168.316 266.469 165.943C264.039 163.57 261.689 159.867 259.458 155.761C258.356 153.734 257.311 151.661 256.316 149.668C256.162 149.36 256.009 149.053 255.858 148.748C255.036 147.098 254.245 145.51 253.504 144.109C252.636 142.467 251.77 140.953 250.931 139.827C250.512 139.266 250.028 138.702 249.475 138.256C248.949 137.832 248.099 137.306 247 137.306C178.955 137.306 117.443 129.542 73.0218 117.043C50.7937 110.789 32.987 103.387 20.7952 95.2766C8.50835 87.1028 2.5 78.6148 2.5 70.3056C2.5 61.9964 8.50835 53.5084 20.7952 45.3346C32.987 37.2239 50.7937 29.8227 73.0218 23.5682C117.443 11.0691 178.955 3.3056 247 3.3056C315.045 3.3056 376.557 11.0691 420.978 23.5682C443.206 29.8227 461.013 37.2239 473.205 45.3346C485.492 53.5084 491.5 61.9964 491.5 70.3056Z" fill="white" stroke="black" stroke-width="5"/>
<path d="M58.8402 86.2C58.3335 86.2 57.9068 86.0267 57.5602 85.68C57.2135 85.3333 57.0402 84.9067 57.0402 84.4V59.72C57.0402 59.2133 57.2135 58.7867 57.5602 58.44C57.9068 58.0667 58.3335 57.88 58.8402 57.88C59.3468 57.88 59.7735 58.0667 60.1202 58.44C60.4935 58.7867 60.6802 59.2133 60.6802 59.72V70.36H75.8402V59.72C75.8402 59.2133 76.0135 58.7867 76.3602 58.44C76.7068 58.0667 77.1335 57.88 77.6402 57.88C78.1468 57.88 78.5735 58.0667 78.9202 58.44C79.2935 58.7867 79.4802 59.2133 79.4802 59.72V84.4C79.4802 84.9067 79.2935 85.3333 78.9202 85.68C78.5735 86.0267 78.1468 86.2 77.6402 86.2C77.1335 86.2 76.7068 86.0267 76.3602 85.68C76.0135 85.3333 75.8402 84.9067 75.8402 84.4V73.76H60.6802V84.4C60.6802 84.9067 60.4935 85.3333 60.1202 85.68C59.7735 86.0267 59.3468 86.2 58.8402 86.2ZM99.5955 86.4C96.7955 86.4 94.3421 85.7867 92.2355 84.56C90.1288 83.3333 88.5021 81.64 87.3555 79.48C86.2088 77.32 85.6088 74.84 85.5555 72.04C85.6088 69.24 86.2088 66.76 87.3555 64.6C88.5021 62.44 90.1288 60.7467 92.2355 59.52C94.3421 58.2933 96.7955 57.68 99.5955 57.68C102.395 57.68 104.835 58.2933 106.915 59.52C109.022 60.7467 110.649 62.4533 111.795 64.64C112.969 66.8 113.582 69.2667 113.635 72.04C113.582 74.8133 112.969 77.2933 111.795 79.48C110.649 81.64 109.022 83.3333 106.915 84.56C104.835 85.7867 102.395 86.4 99.5955 86.4ZM99.5955 83C101.729 83 103.582 82.52 105.155 81.56C106.729 80.6 107.929 79.2933 108.755 77.64C109.582 75.9867 109.995 74.12 109.995 72.04C109.995 69.96 109.582 68.0933 108.755 66.44C107.929 64.7867 106.729 63.48 105.155 62.52C103.582 61.56 101.729 61.08 99.5955 61.08C97.4355 61.08 95.5688 61.56 93.9955 62.52C92.4488 63.48 91.2621 64.7867 90.4355 66.44C89.6088 68.0933 89.1955 69.96 89.1955 72.04C89.1955 74.12 89.6088 75.9867 90.4355 77.64C91.2621 79.2933 92.4488 80.6 93.9955 81.56C95.5688 82.52 97.4355 83 99.5955 83ZM130.976 86.4C129.083 86.4 127.256 86 125.496 85.2C123.736 84.4 122.296 83.1867 121.176 81.56C120.056 79.9067 119.496 77.8933 119.496 75.52V59.72C119.496 59.2133 119.67 58.7867 120.016 58.44C120.363 58.0667 120.79 57.88 121.296 57.88C121.803 57.88 122.23 58.0667 122.576 58.44C122.95 58.7867 123.136 59.2133 123.136 59.72V75.64C123.136 77.24 123.496 78.6 124.216 79.72C124.963 80.84 125.936 81.68 127.136 82.24C128.336 82.8 129.616 83.08 130.976 83.08C132.336 83.08 133.616 82.8 134.816 82.24C136.016 81.68 136.976 80.84 137.696 79.72C138.443 78.6 138.816 77.24 138.816 75.64V59.72C138.816 59.2133 138.99 58.7867 139.336 58.44C139.683 58.0667 140.11 57.88 140.616 57.88C141.123 57.88 141.55 58.0667 141.896 58.44C142.27 58.7867 142.456 59.2133 142.456 59.72V75.52C142.456 77.8933 141.896 79.9067 140.776 81.56C139.656 83.1867 138.216 84.4 136.456 85.2C134.696 86 132.87 86.4 130.976 86.4ZM162.92 86C162.226 86 161.626 85.76 161.12 85.28C160.64 84.7733 160.4 84.1733 160.4 83.48V59.72C160.4 59.2133 160.573 58.7867 160.92 58.44C161.266 58.0667 161.693 57.88 162.2 57.88C162.706 57.88 163.133 58.0667 163.48 58.44C163.853 58.7867 164.04 59.2133 164.04 59.72V82.36H177.12C177.626 82.36 178.053 82.5467 178.4 82.92C178.773 83.2667 178.96 83.6933 178.96 84.2C178.96 84.7067 178.773 85.1333 178.4 85.48C178.053 85.8267 177.626 86 177.12 86H162.92ZM182.585 86.2C182.052 86.2 181.612 86.0267 181.265 85.68C180.945 85.3333 180.785 84.9067 180.785 84.4C180.785 84.1867 180.852 83.92 180.985 83.6L191.185 59.52C191.398 59.04 191.692 58.6533 192.065 58.36C192.465 58.04 192.945 57.88 193.505 57.88H193.905C194.465 57.88 194.932 58.04 195.305 58.36C195.705 58.6533 196.012 59.04 196.225 59.52L206.425 83.6C206.558 83.92 206.625 84.1867 206.625 84.4C206.625 84.9067 206.452 85.3333 206.105 85.68C205.785 86.0267 205.358 86.2 204.825 86.2C204.452 86.2 204.105 86.1067 203.785 85.92C203.492 85.7067 203.265 85.4267 203.105 85.08L200.505 78.84H186.905L184.305 85.08C184.145 85.4267 183.905 85.7067 183.585 85.92C183.292 86.1067 182.958 86.2 182.585 86.2ZM188.305 75.52H199.105L193.705 62.52L188.305 75.52ZM225.42 86C224.726 86 224.126 85.76 223.62 85.28C223.14 84.7733 222.9 84.1733 222.9 83.48V59.72C222.9 59.2133 223.073 58.7867 223.42 58.44C223.766 58.0667 224.193 57.88 224.7 57.88C225.206 57.88 225.633 58.0667 225.98 58.44C226.353 58.7867 226.54 59.2133 226.54 59.72V82.36H239.62C240.126 82.36 240.553 82.5467 240.9 82.92C241.273 83.2667 241.46 83.6933 241.46 84.2C241.46 84.7067 241.273 85.1333 240.9 85.48C240.553 85.8267 240.126 86 239.62 86H225.42ZM245.085 86.2C244.552 86.2 244.112 86.0267 243.765 85.68C243.445 85.3333 243.285 84.9067 243.285 84.4C243.285 84.1867 243.352 83.92 243.485 83.6L253.685 59.52C253.898 59.04 254.192 58.6533 254.565 58.36C254.965 58.04 255.445 57.88 256.005 57.88H256.405C256.965 57.88 257.432 58.04 257.805 58.36C258.205 58.6533 258.512 59.04 258.725 59.52L268.925 83.6C269.058 83.92 269.125 84.1867 269.125 84.4C269.125 84.9067 268.952 85.3333 268.605 85.68C268.285 86.0267 267.858 86.2 267.325 86.2C266.952 86.2 266.605 86.1067 266.285 85.92C265.992 85.7067 265.765 85.4267 265.605 85.08L263.005 78.84H249.405L246.805 85.08C246.645 85.4267 246.405 85.7067 246.085 85.92C245.792 86.1067 245.458 86.2 245.085 86.2ZM250.805 75.52H261.605L256.205 62.52L250.805 75.52ZM287.92 86C287.226 86 286.626 85.76 286.12 85.28C285.64 84.7733 285.4 84.1733 285.4 83.48V59.72C285.4 59.2133 285.573 58.7867 285.92 58.44C286.266 58.0667 286.693 57.88 287.2 57.88C287.706 57.88 288.133 58.0667 288.48 58.44C288.853 58.7867 289.04 59.2133 289.04 59.72V82.36H302.12C302.626 82.36 303.053 82.5467 303.4 82.92C303.773 83.2667 303.96 83.6933 303.96 84.2C303.96 84.7067 303.773 85.1333 303.4 85.48C303.053 85.8267 302.626 86 302.12 86H287.92ZM307.585 86.2C307.052 86.2 306.612 86.0267 306.265 85.68C305.945 85.3333 305.785 84.9067 305.785 84.4C305.785 84.1867 305.852 83.92 305.985 83.6L316.185 59.52C316.398 59.04 316.692 58.6533 317.065 58.36C317.465 58.04 317.945 57.88 318.505 57.88H318.905C319.465 57.88 319.932 58.04 320.305 58.36C320.705 58.6533 321.012 59.04 321.225 59.52L331.425 83.6C331.558 83.92 331.625 84.1867 331.625 84.4C331.625 84.9067 331.452 85.3333 331.105 85.68C330.785 86.0267 330.358 86.2 329.825 86.2C329.452 86.2 329.105 86.1067 328.785 85.92C328.492 85.7067 328.265 85.4267 328.105 85.08L325.505 78.84H311.905L309.305 85.08C309.145 85.4267 308.905 85.7067 308.585 85.92C308.292 86.1067 307.958 86.2 307.585 86.2ZM313.305 75.52H324.105L318.705 62.52L313.305 75.52ZM360.26 86.4C357.46 86.4 355.006 85.7867 352.9 84.56C350.793 83.3333 349.166 81.64 348.02 79.48C346.873 77.32 346.273 74.84 346.22 72.04C346.273 69.24 346.873 66.76 348.02 64.6C349.166 62.44 350.793 60.7467 352.9 59.52C355.006 58.2933 357.46 57.68 360.26 57.68C363.06 57.68 365.5 58.2933 367.58 59.52C369.686 60.7467 371.313 62.4533 372.46 64.64C373.633 66.8 374.246 69.2667 374.3 72.04C374.246 74.8133 373.633 77.2933 372.46 79.48C371.313 81.64 369.686 83.3333 367.58 84.56C365.5 85.7867 363.06 86.4 360.26 86.4ZM360.26 83C362.393 83 364.246 82.52 365.82 81.56C367.393 80.6 368.593 79.2933 369.42 77.64C370.246 75.9867 370.66 74.12 370.66 72.04C370.66 69.96 370.246 68.0933 369.42 66.44C368.593 64.7867 367.393 63.48 365.82 62.52C364.246 61.56 362.393 61.08 360.26 61.08C358.1 61.08 356.233 61.56 354.66 62.52C353.113 63.48 351.926 64.7867 351.1 66.44C350.273 68.0933 349.86 69.96 349.86 72.04C349.86 74.12 350.273 75.9867 351.1 77.64C351.926 79.2933 353.113 80.6 354.66 81.56C356.233 82.52 358.1 83 360.26 83ZM391.64 86.4C389.747 86.4 387.92 86 386.16 85.2C384.4 84.4 382.96 83.1867 381.84 81.56C380.72 79.9067 380.16 77.8933 380.16 75.52V59.72C380.16 59.2133 380.334 58.7867 380.68 58.44C381.027 58.0667 381.454 57.88 381.96 57.88C382.467 57.88 382.894 58.0667 383.24 58.44C383.614 58.7867 383.8 59.2133 383.8 59.72V75.64C383.8 77.24 384.16 78.6 384.88 79.72C385.627 80.84 386.6 81.68 387.8 82.24C389 82.8 390.28 83.08 391.64 83.08C393 83.08 394.28 82.8 395.48 82.24C396.68 81.68 397.64 80.84 398.36 79.72C399.107 78.6 399.48 77.24 399.48 75.64V59.72C399.48 59.2133 399.654 58.7867 400 58.44C400.347 58.0667 400.774 57.88 401.28 57.88C401.787 57.88 402.214 58.0667 402.56 58.44C402.934 58.7867 403.12 59.2133 403.12 59.72V75.52C403.12 77.8933 402.56 79.9067 401.44 81.56C400.32 83.1867 398.88 84.4 397.12 85.2C395.36 86 393.534 86.4 391.64 86.4ZM412.473 86.2C411.966 86.2 411.54 86.0267 411.193 85.68C410.846 85.3333 410.673 84.9067 410.673 84.4V59.72C410.673 59.2133 410.846 58.7867 411.193 58.44C411.54 58.0667 411.966 57.88 412.473 57.88C412.98 57.88 413.406 58.0667 413.753 58.44C414.126 58.7867 414.313 59.2133 414.313 59.72V84.4C414.313 84.9067 414.126 85.3333 413.753 85.68C413.406 86.0267 412.98 86.2 412.473 86.2ZM434.23 78.28C433.83 78.28 433.51 78.1733 433.27 77.96C433.03 77.7467 432.897 77.4667 432.87 77.12L432.15 63.92V59.96C432.15 59.3733 432.35 58.88 432.75 58.48C433.15 58.08 433.643 57.88 434.23 57.88C434.817 57.88 435.297 58.08 435.67 58.48C436.07 58.88 436.27 59.3733 436.27 59.96V63.92L435.55 77.12C435.523 77.4667 435.39 77.7467 435.15 77.96C434.937 78.1733 434.63 78.28 434.23 78.28ZM434.23 86.16C433.59 86.16 433.03 85.9333 432.55 85.48C432.097 85 431.87 84.4267 431.87 83.76C431.87 83.12 432.097 82.5733 432.55 82.12C433.03 81.64 433.59 81.4 434.23 81.4C434.897 81.4 435.457 81.64 435.91 82.12C436.39 82.5733 436.63 83.12 436.63 83.76C436.63 84.4267 436.39 85 435.91 85.48C435.457 85.9333 434.897 86.16 434.23 86.16Z" fill="black"/>
</svg>