<svg width="494" height="171" viewBox="0 0 494 171" fill="none" xmlns="http://www.w3.org/2000/svg">
<path d="M247 137.306C178.955 137.306 117.443 129.542 73.0218 117.043C50.7937 110.789 32.987 103.387 20.7952 95.2766C8.50835 87.1028 2.5 78.6148 2.5 70.3056C2.5 61.9964 8.50835 53.5084 20.7952 45.3346C32.987 37.2239 50.7937 29.8227 73.0218 23.5682C117.443 11.0691 178.955 3.3056 247 3.3056C315.045 3.3056 376.557 11.0691 420.978 23.5682C443.206 29.8227 461.013 37.2239 473.205 45.3346C485.492 53.5084 491.5 61.9964 491.5 70.3056C491.5 78.2313 486.879 86.1508 477.36 93.7507C467.854 101.341 453.762 108.352 435.62 114.418C399.36 126.543 347.499 134.707 285.428 136.501C283.238 136.564 282.332 138.473 282.018 139.306C281.625 140.347 281.397 141.664 281.227 142.973C281.068 144.204 280.938 145.621 280.803 147.094L280.764 147.521C280.612 149.168 280.447 150.905 280.218 152.67C279.757 156.229 279.056 159.72 277.803 162.556C276.559 165.371 274.889 167.288 272.603 168.167C270.828 168.849 268.9 168.316 266.469 165.943C264.039 163.57 261.689 159.867 259.458 155.761C258.356 153.734 257.311 151.661 256.316 149.668C256.162 149.36 256.009 149.053 255.858 148.748C255.036 147.098 254.245 145.51 253.504 144.109C252.636 142.467 251.77 140.953 250.931 139.827C250.512 139.266 250.028 138.702 249.475 138.256C248.949 137.832 248.099 137.306 247 137.306Z" fill="white" stroke="black" stroke-width="5"/>
<path d="M129.098 72.4258C129.098 75.2253 128.603 77.6797 127.613 79.7891C126.624 81.8984 125.204 83.526 123.355 84.6719C121.52 85.8177 119.41 86.3906 117.027 86.3906C114.671 86.3906 112.568 85.8242 110.719 84.6914C108.87 83.5586 107.438 81.944 106.422 79.8477C105.406 77.7383 104.892 75.3164 104.879 72.582V71.1758C104.879 68.3763 105.38 65.9154 106.383 63.793C107.398 61.6576 108.824 60.0234 110.66 58.8906C112.509 57.7448 114.618 57.1719 116.988 57.1719C119.358 57.1719 121.461 57.7448 123.297 58.8906C125.146 60.0234 126.572 61.6576 127.574 63.793C128.59 65.9154 129.098 68.3698 129.098 71.1562V72.4258ZM123.16 71.1367C123.16 68.1549 122.626 65.8893 121.559 64.3398C120.491 62.7904 118.967 62.0156 116.988 62.0156C115.022 62.0156 113.505 62.7839 112.438 64.3203C111.37 65.8438 110.829 68.0833 110.816 71.0391V72.4258C110.816 75.3294 111.35 77.582 112.418 79.1836C113.486 80.7852 115.022 81.5859 117.027 81.5859C118.993 81.5859 120.504 80.8177 121.559 79.2812C122.613 77.7318 123.147 75.4792 123.16 72.5234V71.1367ZM154.879 57.5625V76.293C154.879 79.4049 153.902 81.8659 151.949 83.6758C150.009 85.4857 147.353 86.3906 143.98 86.3906C140.66 86.3906 138.023 85.5117 136.07 83.7539C134.117 81.9961 133.121 79.5807 133.082 76.5078V57.5625H138.941V76.332C138.941 78.194 139.384 79.5547 140.27 80.4141C141.168 81.2604 142.405 81.6836 143.98 81.6836C147.275 81.6836 148.948 79.9518 149 76.4883V57.5625H154.879ZM165.543 81.293H177.984V86H159.684V57.5625H165.543V81.293ZM197.809 80.1406H187.535L185.582 86H179.352L189.938 57.5625H195.367L206.012 86H199.781L197.809 80.1406ZM189.117 75.3945H196.227L192.652 64.75L189.117 75.3945ZM231.812 86H225.953V73.8125H214.527V86H208.668V57.5625H214.527V69.0859H225.953V57.5625H231.812V86ZM252.77 81.293H265.211V86H246.91V57.5625H252.77V81.293ZM285.035 80.1406H274.762L272.809 86H266.578L277.164 57.5625H282.594L293.238 86H287.008L285.035 80.1406ZM276.344 75.3945H283.453L279.879 64.75L276.344 75.3945ZM329.215 72.4258C329.215 75.2253 328.72 77.6797 327.73 79.7891C326.741 81.8984 325.322 83.526 323.473 84.6719C321.637 85.8177 319.527 86.3906 317.145 86.3906C314.788 86.3906 312.685 85.8242 310.836 84.6914C308.987 83.5586 307.555 81.944 306.539 79.8477C305.523 77.7383 305.009 75.3164 304.996 72.582V71.1758C304.996 68.3763 305.497 65.9154 306.5 63.793C307.516 61.6576 308.941 60.0234 310.777 58.8906C312.626 57.7448 314.736 57.1719 317.105 57.1719C319.475 57.1719 321.578 57.7448 323.414 58.8906C325.263 60.0234 326.689 61.6576 327.691 63.793C328.707 65.9154 329.215 68.3698 329.215 71.1562V72.4258ZM323.277 71.1367C323.277 68.1549 322.743 65.8893 321.676 64.3398C320.608 62.7904 319.085 62.0156 317.105 62.0156C315.139 62.0156 313.622 62.7839 312.555 64.3203C311.487 65.8438 310.947 68.0833 310.934 71.0391V72.4258C310.934 75.3294 311.467 77.582 312.535 79.1836C313.603 80.7852 315.139 81.5859 317.145 81.5859C319.111 81.5859 320.621 80.8177 321.676 79.2812C322.73 77.7318 323.264 75.4792 323.277 72.5234V71.1367ZM354.996 57.5625V76.293C354.996 79.4049 354.02 81.8659 352.066 83.6758C350.126 85.4857 347.47 86.3906 344.098 86.3906C340.777 86.3906 338.141 85.5117 336.188 83.7539C334.234 81.9961 333.238 79.5807 333.199 76.5078V57.5625H339.059V76.332C339.059 78.194 339.501 79.5547 340.387 80.4141C341.285 81.2604 342.522 81.6836 344.098 81.6836C347.392 81.6836 349.065 79.9518 349.117 76.4883V57.5625H354.996ZM366.031 86H360.172V57.5625H366.031V86ZM386.812 77.2695H382.125L381.461 57.5625H387.477L386.812 77.2695ZM384.469 80.3555C385.419 80.3555 386.181 80.6354 386.754 81.1953C387.34 81.7552 387.633 82.4714 387.633 83.3438C387.633 84.2031 387.34 84.9128 386.754 85.4727C386.181 86.0326 385.419 86.3125 384.469 86.3125C383.531 86.3125 382.77 86.0326 382.184 85.4727C381.611 84.9128 381.324 84.2031 381.324 83.3438C381.324 82.4844 381.611 81.7747 382.184 81.2148C382.77 80.6419 383.531 80.3555 384.469 80.3555Z" fill="black"/>
</svg>
