<svg width="500" height="157" viewBox="0 0 500 157" fill="none" xmlns="http://www.w3.org/2000/svg">
<path d="M34 2.5C16.603 2.5 2.5 16.603 2.5 34V93C2.5 110.397 16.603 124.5 34 124.5H319.193C322.75 124.5 326.212 125.648 329.065 127.772L360.899 151.483C371.617 159.467 385.725 147.387 379.487 135.567C376.835 130.542 380.478 124.5 386.16 124.5H466C483.397 124.5 497.5 110.397 497.5 93V34C497.5 16.603 483.397 2.5 466 2.5H34Z" fill="white" stroke="black" stroke-width="5"/>
<path d="M140.281 66.4258C140.281 69.2253 139.786 71.6797 138.797 73.7891C137.807 75.8984 136.388 77.526 134.539 78.6719C132.703 79.8177 130.594 80.3906 128.211 80.3906C125.854 80.3906 123.751 79.8242 121.902 78.6914C120.053 77.5586 118.621 75.944 117.605 73.8477C116.59 71.7383 116.076 69.3164 116.062 66.582V65.1758C116.062 62.3763 116.564 59.9154 117.566 57.793C118.582 55.6576 120.008 54.0234 121.844 52.8906C123.693 51.7448 125.802 51.1719 128.172 51.1719C130.542 51.1719 132.645 51.7448 134.48 52.8906C136.329 54.0234 137.755 55.6576 138.758 57.793C139.773 59.9154 140.281 62.3698 140.281 65.1562V66.4258ZM134.344 65.1367C134.344 62.1549 133.81 59.8893 132.742 58.3398C131.674 56.7904 130.151 56.0156 128.172 56.0156C126.206 56.0156 124.689 56.7839 123.621 58.3203C122.553 59.8438 122.013 62.0833 122 65.0391V66.4258C122 69.3294 122.534 71.582 123.602 73.1836C124.669 74.7852 126.206 75.5859 128.211 75.5859C130.177 75.5859 131.688 74.8177 132.742 73.2812C133.797 71.7318 134.331 69.4792 134.344 66.5234V65.1367ZM167.684 80H161.824V67.8125H150.398V80H144.539V51.5625H150.398V63.0859H161.824V51.5625H167.684V80ZM188.641 75.293H201.082V80H182.781V51.5625H188.641V75.293ZM220.906 74.1406H210.633L208.68 80H202.449L213.035 51.5625H218.465L229.109 80H222.879L220.906 74.1406ZM212.215 69.3945H219.324L215.75 58.75L212.215 69.3945ZM247.586 75.293H260.027V80H241.727V51.5625H247.586V75.293ZM279.852 74.1406H269.578L267.625 80H261.395L271.98 51.5625H277.41L288.055 80H281.824L279.852 74.1406ZM271.16 69.3945H278.27L274.695 58.75L271.16 69.3945ZM324.031 66.4258C324.031 69.2253 323.536 71.6797 322.547 73.7891C321.557 75.8984 320.138 77.526 318.289 78.6719C316.453 79.8177 314.344 80.3906 311.961 80.3906C309.604 80.3906 307.501 79.8242 305.652 78.6914C303.803 77.5586 302.371 75.944 301.355 73.8477C300.34 71.7383 299.826 69.3164 299.812 66.582V65.1758C299.812 62.3763 300.314 59.9154 301.316 57.793C302.332 55.6576 303.758 54.0234 305.594 52.8906C307.443 51.7448 309.552 51.1719 311.922 51.1719C314.292 51.1719 316.395 51.7448 318.23 52.8906C320.079 54.0234 321.505 55.6576 322.508 57.793C323.523 59.9154 324.031 62.3698 324.031 65.1562V66.4258ZM318.094 65.1367C318.094 62.1549 317.56 59.8893 316.492 58.3398C315.424 56.7904 313.901 56.0156 311.922 56.0156C309.956 56.0156 308.439 56.7839 307.371 58.3203C306.303 59.8438 305.763 62.0833 305.75 65.0391V66.4258C305.75 69.3294 306.284 71.582 307.352 73.1836C308.419 74.7852 309.956 75.5859 311.961 75.5859C313.927 75.5859 315.438 74.8177 316.492 73.2812C317.547 71.7318 318.081 69.4792 318.094 66.5234V65.1367ZM349.812 51.5625V70.293C349.812 73.4049 348.836 75.8659 346.883 77.6758C344.943 79.4857 342.286 80.3906 338.914 80.3906C335.594 80.3906 332.957 79.5117 331.004 77.7539C329.051 75.9961 328.055 73.5807 328.016 70.5078V51.5625H333.875V70.332C333.875 72.194 334.318 73.5547 335.203 74.4141C336.102 75.2604 337.339 75.6836 338.914 75.6836C342.208 75.6836 343.882 73.9518 343.934 70.4883V51.5625H349.812ZM360.848 80H354.988V51.5625H360.848V80ZM381.629 71.2695H376.941L376.277 51.5625H382.293L381.629 71.2695ZM379.285 74.3555C380.236 74.3555 380.997 74.6354 381.57 75.1953C382.156 75.7552 382.449 76.4714 382.449 77.3438C382.449 78.2031 382.156 78.9128 381.57 79.4727C380.997 80.0326 380.236 80.3125 379.285 80.3125C378.348 80.3125 377.586 80.0326 377 79.4727C376.427 78.9128 376.141 78.2031 376.141 77.3438C376.141 76.4844 376.427 75.7747 377 75.2148C377.586 74.6419 378.348 74.3555 379.285 74.3555Z" fill="black"/>
</svg>
